HIERARCHY
ROOT Hips
{
	OFFSET 0.000000 0.000000 0.000000
	CHANNELS 6 Xposition Yposition Zposition Zrotation Yrotation Xrotation 
	JOINT LeftUpLeg_virtual
	{
		OFFSET 0.000000 0.000000 0.000000
		CHANNELS 3 Zrotation Yrotation Xrotation
		JOINT LeftUpLeg
		{
			OFFSET 8.479694 -4.795517 -0.379053
			CHANNELS 3 Zrotation Yrotation Xrotation
			JOINT LeftLeg
			{
				OFFSET 0.485052 -32.551468 0.112863
				CHANNELS 3 Zrotation Yrotation Xrotation
				JOINT LeftFoot
				{
					OFFSET 0.438033 -32.635670 -3.012641
					CHANNELS 3 Zrotation Yrotation Xrotation
					JOINT LeftToeBase
					{
						OFFSET 0.970169 -13.225353 11.864223
						CHANNELS 3 Zrotation Yrotation Xrotation
						End Site
						{
							OFFSET 0.000000 0.000000 0.000000
						}
					}
				}
			}
		}
	}
	JOINT RightUpLeg_virtual
	{
		OFFSET 0.000000 0.000000 0.000000
		CHANNELS 3 Zrotation Yrotation Xrotation
		JOINT RightUpLeg
		{
			OFFSET -8.479694 -4.795517 -0.379053
			CHANNELS 3 Zrotation Yrotation Xrotation
			JOINT RightLeg
			{
				OFFSET -0.484100 -32.551483 0.112903
				CHANNELS 3 Zrotation Yrotation Xrotation
				JOINT RightFoot
				{
					OFFSET -0.438985 -32.635651 -3.012681
					CHANNELS 3 Zrotation Yrotation Xrotation
					JOINT RightToeBase
					{
						OFFSET -0.970169 -13.225354 11.864223
						CHANNELS 3 Zrotation Yrotation Xrotation
						End Site
						{
							OFFSET 0.000000 0.000000 0.000000
						}
					}
				}
			}
		}
	}
	JOINT Spine_virtual
	{
		OFFSET 0.000000 0.000000 0.000000
		CHANNELS 3 Zrotation Yrotation Xrotation
		JOINT Spine
		{
			OFFSET 0.000000 7.722015 1.166203
			CHANNELS 3 Zrotation Yrotation Xrotation
			JOINT Spine1
			{
				OFFSET 0.000000 12.024086 0.248766
				CHANNELS 3 Zrotation Yrotation Xrotation
				JOINT Spine2
				{
					OFFSET -0.000000 11.503036 -0.491240
					CHANNELS 3 Zrotation Yrotation Xrotation
					JOINT Neck_virtual
					{
						OFFSET 0.000000 0.000000 0.000000
						CHANNELS 3 Zrotation Yrotation Xrotation
						JOINT Neck
						{
							OFFSET 0.000000 18.430687 -3.123054
							CHANNELS 3 Zrotation Yrotation Xrotation
							JOINT Head
							{
								OFFSET -0.000000 9.051071 1.034021
								CHANNELS 3 Zrotation Yrotation Xrotation
								End Site
								{
									OFFSET 0.000000 0.000000 0.000000
								}
							}
						}
					}
					JOINT LeftShoulder_virtual
					{
						OFFSET 0.000000 0.000000 0.000000
						CHANNELS 3 Zrotation Yrotation Xrotation
						JOINT LeftShoulder
						{
							OFFSET 6.197824 13.665230 -4.064723
							CHANNELS 3 Zrotation Yrotation Xrotation
							JOINT LeftArm
							{
								OFFSET 7.778132 -0.187073 -1.709282
								CHANNELS 3 Zrotation Yrotation Xrotation
								JOINT LeftForeArm
								{
									OFFSET 21.954697 0.000000 -2.041093
									CHANNELS 3 Zrotation Yrotation Xrotation
									JOINT LeftHand
									{
										OFFSET 22.992908 0.000000 -0.870901
										CHANNELS 3 Zrotation Yrotation Xrotation
										End Site
										{
											OFFSET 0.000000 0.000000 0.000000
										}
									}
								}
							}
						}
					}
					JOINT RightShoulder_virtual
					{
						OFFSET 0.000000 0.000000 0.000000
						CHANNELS 3 Zrotation Yrotation Xrotation
						JOINT RightShoulder
						{
							OFFSET -6.197824 13.665230 -4.064723
							CHANNELS 3 Zrotation Yrotation Xrotation
							JOINT RightArm
							{
								OFFSET -7.778132 -0.187073 -1.709282
								CHANNELS 3 Zrotation Yrotation Xrotation
								JOINT RightForeArm
								{
									OFFSET -21.954697 0.000000 -2.041093
									CHANNELS 3 Zrotation Yrotation Xrotation
									JOINT RightHand
									{
										OFFSET -22.992908 0.000000 -0.870901
										CHANNELS 3 Zrotation Yrotation Xrotation
										End Site
										{
											OFFSET 0.000000 0.000000 0.000000
										}
									}
								}
							}
						}
					}
				}
			}
		}
	}
}
MOTION
Frames: 4
Frame Time: 0.033333
-25.070099 80.620529 -58.707771 179.852773 10.583771 -179.771699 -1.624524 -0.302929 11.004553 1.058617 1.326870 -33.998919 7.894063 5.046713 33.759877 -6.636196 -1.926933 -12.686046 0.000000 0.000000 0.000000 2.500321 -0.628287 9.788899 -3.658090 8.745305 -34.802102 -0.226526 6.985132 34.178318 14.541254 5.310043 -7.151182 0.000000 0.000000 0.000000 2.759979 2.396076 -3.444494 2.525505 0.218026 -4.648263 -1.249065 -2.608427 13.373087 0.012253 0.034466 0.027924 -1.142211 -1.490712 12.523726 -1.391353 -6.451793 0.910169 0.000000 0.000000 0.000000 0.708275 -1.212570 9.290124 -3.241297 -2.471215 4.762908 -61.122373 -7.593412 7.651005 -167.327368 -86.593890 -169.373938 0.000000 0.000000 0.000000 -4.207093 0.935350 8.184161 31.900470 8.157263 10.065907 39.030091 23.408404 -10.881005 -172.782080 68.883182 -177.920376 0.000000 0.000000 0.000000 
-25.123245 80.650398 -58.707146 179.827201 10.867989 -179.760142 -1.621014 -0.119450 10.931961 0.893746 1.248587 -33.857733 8.083981 5.032156 33.521021 -6.664017 -1.853280 -12.561361 0.000000 0.000000 0.000000 2.575249 -0.398786 9.770805 -3.772146 8.692692 -34.918833 -0.189676 7.048214 34.348632 14.464205 5.360529 -6.996136 0.000000 0.000000 0.000000 2.790081 2.617285 -3.569070 2.471186 0.235918 -4.642992 -1.257894 -2.627062 13.387623 -0.013330 0.061882 0.025367 -1.038773 -1.512308 12.497012 -1.169875 -6.499282 1.188597 0.000000 0.000000 0.000000 0.744521 -1.284055 9.255020 -3.215935 -2.526490 4.742106 -61.360555 -7.567253 7.835309 -168.225442 -86.466035 -168.332457 0.000000 0.000000 0.000000 -4.154681 0.962332 8.063274 32.206794 8.406694 10.043593 38.438054 25.299255 -10.589526 -173.565175 68.009669 -178.565843 0.000000 0.000000 0.000000 
-25.198812 80.685852 -58.691601 179.827461 11.113705 -179.750252 -1.628435 0.004363 10.898135 0.752664 1.106930 -33.807503 8.333355 5.060339 33.313483 -6.728954 -1.751544 -12.353570 0.000000 0.000000 0.000000 2.680837 -0.241085 9.765525 -3.914702 8.557743 -35.026173 -0.120894 7.084429 34.480086 14.393527 5.466907 -6.828445 0.000000 0.000000 0.000000 2.834283 2.724125 -3.676361 2.430814 0.149589 -4.592881 -1.297309 -2.705289 13.255371 0.008665 0.047033 0.107426 -1.053350 -1.460299 12.549303 -0.997869 -6.451214 1.485768 0.000000 0.000000 0.000000 0.705015 -1.284148 9.153302 -3.185891 -2.552465 4.684962 -61.746276 -7.538264 8.167567 -170.534019 -86.366759 -165.851241 0.000000 0.000000 0.000000 -4.120597 0.941127 8.063662 32.389198 8.775010 10.001589 38.149236 26.747656 -10.168224 -174.028275 67.443173 -178.875114 0.000000 0.000000 0.000000 
-25.291513 80.702469 -58.634869 179.826013 11.388539 -179.725882 -1.654802 0.135681 10.931865 0.633462 0.965250 -33.877745 8.595483 5.151318 33.181414 -6.847219 -1.622762 -12.161449 0.000000 0.000000 0.000000 2.815588 -0.085107 9.804231 -4.126176 8.437741 -35.203099 -0.045707 7.106294 34.602462 14.361781 5.643796 -6.702045 0.000000 0.000000 0.000000 2.823281 2.924192 -3.773705 2.330349 0.141992 -4.554885 -1.197514 -2.696748 13.263626 0.010223 0.072766 0.035952 -1.047843 -1.672909 12.492613 -0.726489 -6.422170 1.634725 0.000000 0.000000 0.000000 0.706014 -1.374028 9.143883 -3.301117 -2.741135 4.531641 -62.130795 -7.442743 8.469869 -172.242153 -86.215811 -163.951041 0.000000 0.000000 0.000000 -4.216543 0.900589 7.928320 32.591586 8.923014 9.893945 38.354193 27.499641 -9.588032 -174.374948 66.929502 -179.071905 0.000000 0.000000 0.000000 
